Coordinates
version=1
nRows=15
nColumns=34
inDegrees=no

Units are S.I. units (second, meters, Newtons, ...)
If the header above contains a line with 'inDegrees', this indicates whether rotational values are in degrees (yes) or radians (no).

endheader
time	pelvis_tilt	pelvis_list	pelvis_rotation	pelvis_tx	pelvis_ty	pelvis_tz	hip_flexion_r	hip_adduction_r	hip_rotation_r	knee_angle_r	ankle_angle_r	subtalar_angle_r	mtp_angle_r	hip_flexion_l	hip_adduction_l	hip_rotation_l	knee_angle_l	ankle_angle_l	subtalar_angle_l	mtp_angle_l	lumbar_extension	lumbar_bending	lumbar_rotation	arm_flex_r	arm_add_r	arm_rot_r	elbow_flex_r	pro_sup_r	arm_flex_l	arm_add_l	arm_rot_l	elbow_flex_l	pro_sup_l
0.79	0.143931	0.0473096	0.0461154	0.782263	1.14051	-0.203733	-0.149093	-0.0454271	-0.10643	0.841956	-0.254082	-0.140147	-0.0446163	0.178015	0.0911043	-0.086142	0.292613	-0.0158029	-0.093196	-0.107893	-0.353734	-0.058065	-0.0453633	-0.147994	-0.130527	-0.228376	0.69029	2.15241	-0.136933	-0.149096	-0.209729	0.7384	2.10437
0.8	0.144334	0.0490491	0.0388911	0.792901	1.14211	-0.203784	-0.119413	-0.0516216	-0.0898164	0.890368	-0.276955	-0.158638	-0.0447204	0.165237	0.0928402	-0.0888118	0.288309	-0.00783233	-0.0946406	-0.107906	-0.354345	-0.0626639	-0.0417023	-0.14999	-0.130096	-0.224784	0.683343	2.15332	-0.135487	-0.149759	-0.209413	0.740662	2.1094
0.81	0.145231	0.0502864	0.0319197	0.803381	1.14376	-0.203871	-0.0906399	-0.0568529	-0.0745633	0.935273	-0.291468	-0.175153	-0.0448246	0.151316	0.0942558	-0.0913901	0.28255	-0.000747961	-0.0955243	-0.107918	-0.355516	-0.0662858	-0.0388248	-0.151531	-0.130377	-0.220027	0.677551	2.15462	-0.134487	-0.150548	-0.208605	0.743969	2.11427
0.82	0.14655	0.0509566	0.0255869	0.813713	1.14542	-0.204014	-0.0629724	-0.0610497	-0.0611312	0.976103	-0.297682	-0.19022	-0.0449286	0.136536	0.0953019	-0.0934755	0.27576	0.00558872	-0.0959504	-0.107931	-0.35714	-0.0687986	-0.0370441	-0.152662	-0.131246	-0.214329	0.672911	2.15606	-0.133917	-0.151465	-0.207342	0.748157	2.11868
0.83	0.148174	0.0510146	0.020142	0.823912	1.1471	-0.204223	-0.036465	-0.0642062	-0.0497592	1.01246	-0.296357	-0.204484	-0.0450327	0.12117	0.095933	-0.0948441	0.268261	0.0113325	-0.0959487	-0.107944	-0.359083	-0.0701403	-0.0364975	-0.153462	-0.132566	-0.20801	0.669422	2.15741	-0.133723	-0.152491	-0.205701	0.753062	2.12243
0.84	0.149962	0.0504581	0.0156816	0.83399	1.14878	-0.204501	-0.0110655	-0.0663848	-0.0404784	1.04411	-0.288835	-0.218586	-0.0451367	0.105453	0.0961236	-0.0954682	0.260247	0.0166294	-0.0954781	-0.107957	-0.361197	-0.0703302	-0.03715	-0.154034	-0.134188	-0.201448	0.667078	2.15847	-0.133825	-0.153594	-0.203788	0.758535	2.12542
0.85	0.151776	0.0493312	0.0121653	0.843961	1.15044	-0.204842	0.0133346	-0.067707	-0.0331518	1.07092	-0.276815	-0.233049	-0.0452407	0.0895598	0.0958803	-0.0954943	0.251808	0.0216054	-0.0944392	-0.107971	-0.363346	-0.0694683	-0.0388251	-0.154495	-0.135971	-0.19504	0.665864	2.15916	-0.134129	-0.154737	-0.201713	0.76446	2.12767
0.86	0.1535	0.0477164	0.00945398	0.853839	1.15208	-0.205236	0.0368514	-0.0683318	-0.0275302	1.09286	-0.262072	-0.248196	-0.0453446	0.0735999	0.0952428	-0.0951893	0.242946	0.0263627	-0.0926976	-0.107984	-0.365426	-0.0677152	-0.0412529	-0.15496	-0.137786	-0.189161	0.665753	2.15946	-0.13453	-0.155888	-0.199569	0.770752	2.12924
0.87	0.155054	0.0457174	0.00735872	0.863634	1.15367	-0.205667	0.0595707	-0.0684267	-0.0233116	1.10998	-0.246191	-0.264102	-0.0454486	0.0576242	0.0942747	-0.0948684	0.233626	0.0309831	-0.0901128	-0.107998	-0.367372	-0.0652624	-0.044126	-0.155534	-0.139525	-0.184134	0.666698	2.15943	-0.134924	-0.157027	-0.19742	0.777348	2.13027
0.88	0.156398	0.0434381	0.00568973	0.873358	1.15521	-0.206122	0.0815274	-0.0681396	-0.0201943	1.12233	-0.230369	-0.280582	-0.0455524	0.0416424	0.0930483	-0.0948231	0.223807	0.0355317	-0.0865708	-0.108011	-0.369161	-0.062298	-0.0471494	-0.156298	-0.141102	-0.18021	0.66863	2.15917	-0.135208	-0.15815	-0.195288	0.784198	2.1309
0.89	0.157532	0.0409653	0.00429396	0.883017	1.15667	-0.206589	0.102703	-0.0675786	-0.0179143	1.13001	-0.215321	-0.297221	-0.0456563	0.0256465	0.0916296	-0.0952635	0.213478	0.0400606	-0.0820107	-0.108025	-0.370802	-0.05898	-0.0500787	-0.157302	-0.142455	-0.177554	0.671453	2.15877	-0.135286	-0.159273	-0.193152	0.791249	2.13129
0.9	0.158478	0.0383611	0.00307603	0.892619	1.15805	-0.207062	0.123034	-0.0668055	-0.0162658	1.1331	-0.201308	-0.313437	-0.0457601	0.00963269	0.0900679	-0.096286	0.202678	0.0446119	-0.0764416	-0.108039	-0.372327	-0.0554219	-0.0527411	-0.158559	-0.143546	-0.176241	0.675047	2.15833	-0.135074	-0.160423	-0.190962	0.79844	2.13156
0.91	0.159265	0.035665	0.00200034	0.902168	1.15933	-0.207534	0.142436	-0.0658428	-0.0151051	1.13169	-0.188244	-0.328566	-0.0458639	-0.00638247	0.0883949	-0.0978691	0.191498	0.0492181	-0.0699468	-0.108053	-0.373773	-0.0516941	-0.0550399	-0.16005	-0.144353	-0.176265	0.679267	2.15789	-0.134503	-0.161639	-0.188645	0.8057	2.13183
0.92	0.15991	0.0329039	0.0010783	0.911669	1.16051	-0.208005	0.160817	-0.0646901	-0.0143426	1.12586	-0.175847	-0.341968	-0.0459676	-0.022353	0.0866312	-0.0998922	0.180077	0.0539029	-0.0626745	-0.108067	-0.375166	-0.0478373	-0.0569464	-0.161725	-0.14487	-0.177538	0.683945	2.15748	-0.133529	-0.162962	-0.186126	0.812951	2.13216
0.93	0.160415	0.0301047	0.000347191	0.921125	1.16157	-0.208473	0.1781	-0.0633443	-0.0139274	1.11571	-0.163796	-0.353119	-0.0460713	-0.0382021	0.0847975	-0.10217	0.16858	0.0586799	-0.0548204	-0.108082	-0.376514	-0.0438829	-0.0584827	-0.163515	-0.1451	-0.179907	0.688903	2.15706	-0.13213	-0.164429	-0.183337	0.820119	2.13262
